<svg xmlns="http://www.w3.org/2000/svg" width="16" height="16" fill="none"><path fill="#fff" fill-rule="evenodd" d="M3.836 11.014h3.726L9.26 4.658H3.836A3.18 3.18 0 0 0 .657 7.836a3.18 3.18 0 0 0 3.179 3.178Z" clip-rule="evenodd"/><path fill="#000" fill-rule="evenodd" d="M11.644 5H4.356A3.336 3.336 0 0 0 1 8.356a3.336 3.336 0 0 0 3.356 3.356h7.288A3.336 3.336 0 0 0 15 8.356 3.366 3.366 0 0 0 11.644 5ZM1.575 8.356a2.783 2.783 0 0 1 2.781-2.78h4.747l-1.487 5.561h-3.26a2.783 2.783 0 0 1-2.78-2.78Z" clip-rule="evenodd"/><path fill="#fff" d="M12.603 6.918a.292.292 0 0 1 0 .383l-1.007 1.055 1.055 1.055a.292.292 0 0 1 0 .384.292.292 0 0 1-.384 0L11.212 8.74l-1.054 1.055a.292.292 0 0 1-.384 0 .292.292 0 0 1 0-.384l1.007-1.055-1.055-1.055a.292.292 0 0 1 0-.383.292.292 0 0 1 .383 0l1.055 1.055 1.055-1.055a.292.292 0 0 1 .384 0Z"/><path fill="#000" d="M6.897 6.966c.096.096.144.287.048.383L4.931 9.7c-.047.048-.095.095-.143.095a.295.295 0 0 1-.336-.047L3.397 8.692a.292.292 0 0 1 0-.384.292.292 0 0 1 .384 0l.863.815 1.822-2.157c.096-.096.287-.096.431 0Z"/></svg>